<svg width="235" height="70" viewBox="0 0 235 70" fill="none" xmlns="http://www.w3.org/2000/svg">
<path d="M60.6001 21.84L57.6401 25V32H49.8001V4H57.6401V15.64L68.4801 4H77.2001L65.7601 16.4L77.8001 32H68.6001L60.6001 21.84ZM101.579 10.32V32H94.3388V29.84C92.9255 31.52 90.7922 32.36 87.9388 32.36C85.9655 32.36 84.1655 31.9067 82.5388 31C80.9388 30.0667 79.6588 28.7467 78.6988 27.04C77.7655 25.3333 77.2988 23.36 77.2988 21.12C77.2988 18.88 77.7655 16.92 78.6988 15.24C79.6588 13.5333 80.9388 12.2267 82.5388 11.32C84.1655 10.4133 85.9655 9.96 87.9388 9.96C90.4988 9.96 92.5122 10.7067 93.9788 12.2V10.32H101.579ZM89.5388 26.32C90.8722 26.32 91.9655 25.8667 92.8188 24.96C93.6722 24.0267 94.0988 22.7467 94.0988 21.12C94.0988 19.52 93.6722 18.2667 92.8188 17.36C91.9655 16.4533 90.8722 16 89.5388 16C88.2055 16 87.1122 16.4533 86.2588 17.36C85.4055 18.2667 84.9788 19.52 84.9788 21.12C84.9788 22.7467 85.4055 24.0267 86.2588 24.96C87.1122 25.8667 88.2055 26.32 89.5388 26.32ZM113.711 12.92C114.485 11.9333 115.485 11.2 116.711 10.72C117.965 10.2133 119.391 9.96 120.991 9.96V16.8C120.298 16.72 119.725 16.68 119.271 16.68C117.645 16.68 116.365 17.12 115.431 18C114.525 18.88 114.071 20.2267 114.071 22.04V32H106.471V10.32H113.711V12.92ZM132.568 32.36C129.901 32.36 127.821 31.68 126.328 30.32C124.861 28.9333 124.128 26.96 124.128 24.4V2.32H131.728V24C131.728 24.8 131.928 25.4133 132.328 25.84C132.754 26.2667 133.341 26.48 134.088 26.48C134.701 26.48 135.274 26.3467 135.808 26.08L136.128 31.8C134.981 32.1733 133.794 32.36 132.568 32.36ZM146.734 32.36C144.921 32.36 143.134 32.16 141.374 31.76C139.614 31.3333 138.201 30.7867 137.134 30.12L139.414 24.92C140.401 25.5333 141.574 26.0267 142.934 26.4C144.294 26.7467 145.641 26.92 146.974 26.92C148.201 26.92 149.067 26.8 149.574 26.56C150.107 26.2933 150.374 25.92 150.374 25.44C150.374 24.96 150.054 24.6267 149.414 24.44C148.801 24.2267 147.814 24.0267 146.454 23.84C144.721 23.6267 143.241 23.3467 142.014 23C140.814 22.6533 139.774 22.0133 138.894 21.08C138.014 20.1467 137.574 18.84 137.574 17.16C137.574 15.7733 137.987 14.5467 138.814 13.48C139.641 12.3867 140.841 11.5333 142.414 10.92C144.014 10.28 145.921 9.96 148.134 9.96C149.707 9.96 151.267 10.12 152.814 10.44C154.361 10.76 155.654 11.2133 156.694 11.8L154.414 16.96C152.494 15.8933 150.414 15.36 148.174 15.36C146.974 15.36 146.094 15.5067 145.534 15.8C144.974 16.0667 144.694 16.4267 144.694 16.88C144.694 17.3867 145.001 17.7467 145.614 17.96C146.227 18.1467 147.241 18.3467 148.654 18.56C150.441 18.8267 151.921 19.1333 153.094 19.48C154.267 19.8267 155.281 20.4667 156.134 21.4C157.014 22.3067 157.454 23.5867 157.454 25.24C157.454 26.6 157.041 27.8267 156.214 28.92C155.387 29.9867 154.161 30.8267 152.534 31.44C150.934 32.0533 149.001 32.36 146.734 32.36ZM174.689 31.12C174.049 31.52 173.262 31.8267 172.329 32.04C171.422 32.2533 170.449 32.36 169.409 32.36C166.582 32.36 164.409 31.6667 162.889 30.28C161.396 28.8933 160.649 26.8267 160.649 24.08V5.48H168.249V11.12H173.169V16.8H168.249V24C168.249 24.8 168.449 25.4133 168.849 25.84C169.249 26.2667 169.796 26.48 170.489 26.48C171.369 26.48 172.142 26.2533 172.809 25.8L174.689 31.12ZM199.899 10.32V32H192.659V29.84C191.246 31.52 189.112 32.36 186.259 32.36C184.286 32.36 182.486 31.9067 180.859 31C179.259 30.0667 177.979 28.7467 177.019 27.04C176.086 25.3333 175.619 23.36 175.619 21.12C175.619 18.88 176.086 16.92 177.019 15.24C177.979 13.5333 179.259 12.2267 180.859 11.32C182.486 10.4133 184.286 9.96 186.259 9.96C188.819 9.96 190.832 10.7067 192.299 12.2V10.32H199.899ZM187.859 26.32C189.192 26.32 190.286 25.8667 191.139 24.96C191.992 24.0267 192.419 22.7467 192.419 21.12C192.419 19.52 191.992 18.2667 191.139 17.36C190.286 16.4533 189.192 16 187.859 16C186.526 16 185.432 16.4533 184.579 17.36C183.726 18.2667 183.299 19.52 183.299 21.12C183.299 22.7467 183.726 24.0267 184.579 24.96C185.432 25.8667 186.526 26.32 187.859 26.32ZM227.832 2.32V32H220.592V29.84C219.178 31.52 217.058 32.36 214.232 32.36C212.258 32.36 210.458 31.9067 208.832 31C207.205 30.0667 205.912 28.7467 204.952 27.04C204.018 25.3333 203.552 23.36 203.552 21.12C203.552 18.88 204.018 16.92 204.952 15.24C205.912 13.5333 207.205 12.2267 208.832 11.32C210.458 10.4133 212.258 9.96 214.232 9.96C216.818 9.96 218.818 10.7067 220.232 12.2V2.32H227.832ZM215.832 26.32C217.138 26.32 218.218 25.8667 219.072 24.96C219.925 24.0267 220.352 22.7467 220.352 21.12C220.352 19.52 219.925 18.2667 219.072 17.36C218.245 16.4533 217.165 16 215.832 16C214.498 16 213.405 16.4533 212.552 17.36C211.698 18.2667 211.272 19.52 211.272 21.12C211.272 22.7467 211.698 24.0267 212.552 24.96C213.405 25.8667 214.498 26.32 215.832 26.32Z" fill="#1D2B36"/>
<path d="M56.0771 64.348C54.4724 64.348 52.9161 64.1353 51.4081 63.71C49.9194 63.2653 48.7208 62.695 47.8121 61.999L49.4071 58.461C50.2771 59.099 51.3114 59.6113 52.5101 59.998C53.7088 60.3847 54.9074 60.578 56.1061 60.578C57.4401 60.578 58.4261 60.3847 59.0641 59.998C59.7021 59.592 60.0211 59.0603 60.0211 58.403C60.0211 57.9197 59.8278 57.5233 59.4411 57.214C59.0738 56.8853 58.5904 56.6243 57.9911 56.431C57.4111 56.2377 56.6184 56.025 55.6131 55.793C54.0664 55.4257 52.8001 55.0583 51.8141 54.691C50.8281 54.3237 49.9774 53.734 49.2621 52.922C48.5661 52.11 48.2181 51.0273 48.2181 49.674C48.2181 48.4947 48.5371 47.4313 49.1751 46.484C49.8131 45.5173 50.7701 44.7537 52.0461 44.193C53.3414 43.6323 54.9171 43.352 56.7731 43.352C58.0684 43.352 59.3348 43.5067 60.5721 43.816C61.8094 44.1253 62.8921 44.57 63.8201 45.15L62.3701 48.717C60.4948 47.6537 58.6194 47.122 56.7441 47.122C55.4294 47.122 54.4531 47.3347 53.8151 47.76C53.1964 48.1853 52.8871 48.746 52.8871 49.442C52.8871 50.138 53.2448 50.66 53.9601 51.008C54.6948 51.3367 55.8064 51.6653 57.2951 51.994C58.8418 52.3613 60.1081 52.7287 61.0941 53.096C62.0801 53.4633 62.9211 54.0433 63.6171 54.836C64.3324 55.6287 64.6901 56.7017 64.6901 58.055C64.6901 59.215 64.3614 60.2783 63.7041 61.245C63.0661 62.1923 62.0994 62.9463 60.8041 63.507C59.5088 64.0677 57.9331 64.348 56.0771 64.348ZM76.9773 63.246C76.5326 63.5747 75.9816 63.826 75.3243 64C74.6863 64.1547 74.0193 64.232 73.3233 64.232C71.4479 64.232 70.0076 63.7583 69.0023 62.811C67.9969 61.8637 67.4943 60.4717 67.4943 58.635V44.947H72.0183V48.746H75.8753V52.226H72.0183V58.577C72.0183 59.2343 72.1826 59.7467 72.5113 60.114C72.8399 60.462 73.3136 60.636 73.9323 60.636C74.6283 60.636 75.2469 60.4427 75.7883 60.056L76.9773 63.246ZM94.885 48.398V64H90.564V62.202C89.4426 63.5553 87.8186 64.232 85.692 64.232C84.2226 64.232 82.8886 63.9033 81.69 63.246C80.5106 62.5887 79.5826 61.651 78.906 60.433C78.2293 59.215 77.891 57.8037 77.891 56.199C77.891 54.5943 78.2293 53.183 78.906 51.965C79.5826 50.747 80.5106 49.8093 81.69 49.152C82.8886 48.4947 84.2226 48.166 85.692 48.166C87.6833 48.166 89.2396 48.7943 90.361 50.051V48.398H94.885ZM86.475 60.52C87.6156 60.52 88.563 60.1333 89.317 59.36C90.071 58.5673 90.448 57.5137 90.448 56.199C90.448 54.8843 90.071 53.8403 89.317 53.067C88.563 52.2743 87.6156 51.878 86.475 51.878C85.315 51.878 84.358 52.2743 83.604 53.067C82.85 53.8403 82.473 54.8843 82.473 56.199C82.473 57.5137 82.85 58.5673 83.604 59.36C84.358 60.1333 85.315 60.52 86.475 60.52ZM84.155 46.252C83.575 46.252 83.0916 46.0683 82.705 45.701C82.3183 45.3143 82.125 44.831 82.125 44.251C82.125 43.671 82.3183 43.1973 82.705 42.83C83.0916 42.4433 83.575 42.25 84.155 42.25C84.735 42.25 85.2086 42.4433 85.576 42.83C85.9626 43.1973 86.156 43.671 86.156 44.251C86.156 44.831 85.9626 45.3143 85.576 45.701C85.2086 46.0683 84.735 46.252 84.155 46.252ZM90.013 46.252C89.433 46.252 88.9496 46.0683 88.563 45.701C88.1956 45.3143 88.012 44.831 88.012 44.251C88.012 43.671 88.1956 43.1973 88.563 42.83C88.9496 42.4433 89.433 42.25 90.013 42.25C90.593 42.25 91.0763 42.4433 91.463 42.83C91.8496 43.1973 92.043 43.671 92.043 44.251C92.043 44.831 91.8496 45.3143 91.463 45.701C91.0763 46.0683 90.593 46.252 90.013 46.252ZM114.965 42.482V64H110.644V62.202C109.523 63.5553 107.899 64.232 105.772 64.232C104.303 64.232 102.969 63.9033 101.77 63.246C100.591 62.5887 99.6631 61.651 98.9864 60.433C98.3098 59.215 97.9714 57.8037 97.9714 56.199C97.9714 54.5943 98.3098 53.183 98.9864 51.965C99.6631 50.747 100.591 49.8093 101.77 49.152C102.969 48.4947 104.303 48.166 105.772 48.166C107.764 48.166 109.32 48.7943 110.441 50.051V42.482H114.965ZM106.555 60.52C107.696 60.52 108.643 60.1333 109.397 59.36C110.151 58.5673 110.528 57.5137 110.528 56.199C110.528 54.8843 110.151 53.8403 109.397 53.067C108.643 52.2743 107.696 51.878 106.555 51.878C105.395 51.878 104.438 52.2743 103.684 53.067C102.93 53.8403 102.553 54.8843 102.553 56.199C102.553 57.5137 102.93 58.5673 103.684 59.36C104.438 60.1333 105.395 60.52 106.555 60.52ZM128.375 48.166C129.825 48.166 131.139 48.5043 132.319 49.181C133.517 49.8383 134.455 50.776 135.132 51.994C135.808 53.1927 136.147 54.5943 136.147 56.199C136.147 57.8037 135.808 59.215 135.132 60.433C134.455 61.6317 133.517 62.5693 132.319 63.246C131.139 63.9033 129.825 64.232 128.375 64.232C126.383 64.232 124.817 63.6037 123.677 62.347V69.626H119.153V48.398H123.474V50.196C124.595 48.8427 126.229 48.166 128.375 48.166ZM127.592 60.52C128.752 60.52 129.699 60.1333 130.434 59.36C131.188 58.5673 131.565 57.5137 131.565 56.199C131.565 54.8843 131.188 53.8403 130.434 53.067C129.699 52.2743 128.752 51.878 127.592 51.878C126.432 51.878 125.475 52.2743 124.721 53.067C123.986 53.8403 123.619 54.8843 123.619 56.199C123.619 57.5137 123.986 58.5673 124.721 59.36C125.475 60.1333 126.432 60.52 127.592 60.52ZM155.009 48.398V64H150.688V62.202C149.567 63.5553 147.943 64.232 145.816 64.232C144.347 64.232 143.013 63.9033 141.814 63.246C140.635 62.5887 139.707 61.651 139.03 60.433C138.353 59.215 138.015 57.8037 138.015 56.199C138.015 54.5943 138.353 53.183 139.03 51.965C139.707 50.747 140.635 49.8093 141.814 49.152C143.013 48.4947 144.347 48.166 145.816 48.166C147.807 48.166 149.364 48.7943 150.485 50.051V48.398H155.009ZM146.599 60.52C147.74 60.52 148.687 60.1333 149.441 59.36C150.195 58.5673 150.572 57.5137 150.572 56.199C150.572 54.8843 150.195 53.8403 149.441 53.067C148.687 52.2743 147.74 51.878 146.599 51.878C145.439 51.878 144.482 52.2743 143.728 53.067C142.974 53.8403 142.597 54.8843 142.597 56.199C142.597 57.5137 142.974 58.5673 143.728 59.36C144.482 60.1333 145.439 60.52 146.599 60.52ZM163.518 50.457C164.06 49.703 164.785 49.1327 165.693 48.746C166.621 48.3593 167.685 48.166 168.883 48.166V52.342C168.381 52.3033 168.042 52.284 167.868 52.284C166.573 52.284 165.558 52.6513 164.823 53.386C164.089 54.1013 163.721 55.184 163.721 56.634V64H159.197V48.398H163.518V50.457ZM180.969 63.246C180.525 63.5747 179.974 63.826 179.316 64C178.678 64.1547 178.011 64.232 177.315 64.232C175.44 64.232 174 63.7583 172.994 62.811C171.989 61.8637 171.486 60.4717 171.486 58.635V44.947H176.01V48.746H179.867V52.226H176.01V58.577C176.01 59.2343 176.175 59.7467 176.503 60.114C176.832 60.462 177.306 60.636 177.924 60.636C178.62 60.636 179.239 60.4427 179.78 60.056L180.969 63.246ZM193.008 48.166C194.941 48.166 196.497 48.746 197.677 49.906C198.875 51.066 199.475 52.7867 199.475 55.068V64H194.951V55.764C194.951 54.5267 194.68 53.6083 194.139 53.009C193.597 52.3903 192.814 52.081 191.79 52.081C190.649 52.081 189.74 52.4387 189.064 53.154C188.387 53.85 188.049 54.894 188.049 56.286V64H183.525V48.398H187.846V50.225C188.445 49.5677 189.189 49.065 190.079 48.717C190.968 48.3497 191.944 48.166 193.008 48.166ZM211.604 60.607C212.416 60.607 213.132 60.491 213.75 60.259C214.388 60.0077 214.978 59.621 215.519 59.099L217.926 61.709C216.457 63.391 214.311 64.232 211.488 64.232C209.729 64.232 208.173 63.8937 206.819 63.217C205.466 62.521 204.422 61.564 203.687 60.346C202.953 59.128 202.585 57.7457 202.585 56.199C202.585 54.6717 202.943 53.299 203.658 52.081C204.393 50.8437 205.389 49.8867 206.645 49.21C207.921 48.514 209.352 48.166 210.937 48.166C212.426 48.166 213.779 48.485 214.997 49.123C216.215 49.7417 217.182 50.6503 217.897 51.849C218.632 53.0283 218.999 54.43 218.999 56.054L207.457 58.287C207.786 59.0603 208.298 59.6403 208.994 60.027C209.71 60.4137 210.58 60.607 211.604 60.607ZM210.937 51.588C209.797 51.588 208.869 51.9553 208.153 52.69C207.438 53.4247 207.061 54.4397 207.022 55.735L214.62 54.256C214.408 53.444 213.973 52.7963 213.315 52.313C212.658 51.8297 211.865 51.588 210.937 51.588ZM226.361 50.457C226.903 49.703 227.628 49.1327 228.536 48.746C229.464 48.3593 230.528 48.166 231.726 48.166V52.342C231.224 52.3033 230.885 52.284 230.711 52.284C229.416 52.284 228.401 52.6513 227.666 53.386C226.932 54.1013 226.564 55.184 226.564 56.634V64H222.04V48.398H226.361V50.457Z" fill="#1F3142"/>
<path d="M35 58.5715C21.6564 58.5715 10.8392 47.7542 10.8392 34.4107C10.8392 21.0673 21.6564 10.25 35 10.25" stroke="#E3B23C" stroke-width="4" stroke-linecap="round"/>
<path d="M2 34.4108L9.07143 34.4108" stroke="#E3B23C" stroke-width="4" stroke-linecap="round"/>
<path d="M6.125 49.1429L12.0179 45.6072" stroke="#E3B23C" stroke-width="4" stroke-linecap="round"/>
<path d="M6.125 19.6786L12.0179 23.2143" stroke="#E3B23C" stroke-width="4" stroke-linecap="round"/>
<path d="M16.1429 59.1608L19.6786 53.8572" stroke="#E3B23C" stroke-width="4" stroke-linecap="round"/>
<path d="M16.1429 9.66074L19.6786 14.9643" stroke="#E3B23C" stroke-width="4" stroke-linecap="round"/>
<path d="M35 66.8215L35 59.1608" stroke="#E3B23C" stroke-width="4" stroke-linecap="round"/>
<path d="M35 9.66072L35 2" stroke="#E3B23C" stroke-width="4" stroke-linecap="round"/>
</svg>
